<svg width="71" height="50" viewBox="0 0 71 50" fill="none" xmlns="http://www.w3.org/2000/svg">
<path d="M65.4133 50H5.10665C2.29094 50 0 48.098 0 45.7616V6.47469C0 4.13798 2.29094 2.23676 5.10665 2.23676H65.4136C68.2293 2.23676 70.5202 4.13823 70.5202 6.47469V45.7616C70.5199 48.0983 68.229 50 65.4133 50ZM5.10665 3.9561C3.43335 3.9561 2.07209 5.08579 2.07209 6.47444V45.7613C2.07209 47.15 3.43335 48.2802 5.10665 48.2802H65.4136C67.0869 48.2802 68.4481 47.15 68.4481 45.7613V6.47469C68.4481 5.08604 67.0869 3.95635 65.4136 3.95635H5.10665V3.9561Z" fill="black"/>
<path d="M9.6271 7.25562C9.05514 7.25562 8.59106 6.87049 8.59106 6.39582V0.859799C8.59106 0.384875 9.05514 0 9.6271 0C10.1994 0 10.6631 0.384875 10.6631 0.859799V6.39582C10.6631 6.87049 10.1994 7.25562 9.6271 7.25562Z" fill="black"/>
<path d="M9.62716 8.35071C8.32812 8.35071 7.27124 7.47361 7.27124 6.39556C7.27124 5.31801 8.32812 4.44092 9.62716 4.44092C10.9256 4.44092 11.9822 5.31801 11.9822 6.39556C11.9822 7.47386 10.9256 8.35071 9.62716 8.35071ZM9.62716 6.16076C9.47084 6.16076 9.34333 6.26608 9.34333 6.39581C9.34333 6.65477 9.91008 6.65553 9.91008 6.39581C9.91008 6.26608 9.78288 6.16076 9.62716 6.16076Z" fill="black"/>
<path d="M18.1718 7.25562C17.5998 7.25562 17.1357 6.87049 17.1357 6.39582V0.859799C17.1357 0.384875 17.5998 0 18.1718 0C18.7441 0 19.2078 0.384875 19.2078 0.859799V6.39582C19.2075 6.87049 18.7437 7.25562 18.1718 7.25562Z" fill="black"/>
<path d="M18.1716 8.35071C16.8726 8.35071 15.8157 7.47361 15.8157 6.39556C15.8157 5.31801 16.8726 4.44092 18.1716 4.44092C19.47 4.44092 20.5266 5.31801 20.5266 6.39556C20.5263 7.47386 19.47 8.35071 18.1716 8.35071ZM18.1716 6.16076C18.0153 6.16076 17.8878 6.26608 17.8878 6.39581C17.8878 6.65477 18.4545 6.65553 18.4545 6.39581C18.4542 6.26608 18.3273 6.16076 18.1716 6.16076Z" fill="black"/>
<path d="M26.7157 7.25562C26.1435 7.25562 25.6797 6.87049 25.6797 6.39582V0.859799C25.6797 0.384875 26.1435 0 26.7157 0C27.288 0 27.7518 0.384875 27.7518 0.859799V6.39582C27.7515 6.87049 27.2877 7.25562 26.7157 7.25562Z" fill="black"/>
<path d="M26.7155 8.35071C25.4165 8.35071 24.3596 7.47361 24.3596 6.39556C24.3596 5.31801 25.4165 4.44092 26.7155 4.44092C28.014 4.44092 29.0709 5.31801 29.0709 6.39556C29.0709 7.47386 28.014 8.35071 26.7155 8.35071ZM26.7155 6.16076C26.5592 6.16076 26.4317 6.26608 26.4317 6.39581C26.4317 6.65528 26.9988 6.65528 26.9988 6.39581C26.9988 6.26608 26.8716 6.16076 26.7155 6.16076Z" fill="black"/>
<path d="M35.2599 7.25562C34.688 7.25562 34.2239 6.87049 34.2239 6.39582V0.859799C34.2239 0.384875 34.688 0 35.2599 0C35.8322 0 36.296 0.384875 36.296 0.859799V6.39582C36.296 6.87049 35.8322 7.25562 35.2599 7.25562Z" fill="black"/>
<path d="M35.26 8.35071C33.9609 8.35071 32.9041 7.47361 32.9041 6.39556C32.9041 5.31801 33.9609 4.44092 35.26 4.44092C36.5584 4.44092 37.6147 5.31801 37.6147 6.39556C37.6147 7.47386 36.5584 8.35071 35.26 8.35071ZM35.26 6.16076C35.1037 6.16076 34.9761 6.26608 34.9761 6.39581C34.9761 6.65477 35.5429 6.65553 35.5429 6.39581C35.5429 6.26608 35.4157 6.16076 35.26 6.16076Z" fill="black"/>
<path d="M43.8046 7.25562C43.2326 7.25562 42.7686 6.87049 42.7686 6.39582V0.859799C42.7686 0.384875 43.2326 0 43.8046 0C44.3769 0 44.8406 0.384875 44.8406 0.859799V6.39582C44.8403 6.87049 44.3766 7.25562 43.8046 7.25562Z" fill="black"/>
<path d="M43.8047 8.35071C42.5057 8.35071 41.4485 7.47361 41.4485 6.39556C41.4485 5.31801 42.5057 4.44092 43.8047 4.44092C45.1031 4.44092 46.1594 5.31801 46.1594 6.39556C46.1594 7.47386 45.1031 8.35071 43.8047 8.35071ZM43.8047 6.16076C43.6481 6.16076 43.5206 6.26608 43.5206 6.39581C43.5206 6.52554 43.6481 6.63136 43.8047 6.63136C43.9604 6.63136 44.0876 6.52554 44.0876 6.39581C44.0873 6.26608 43.9604 6.16076 43.8047 6.16076Z" fill="black"/>
<path d="M52.3485 7.25562C51.7763 7.25562 51.3125 6.87049 51.3125 6.39582V0.859799C51.3125 0.384875 51.7763 0 52.3485 0C52.9208 0 53.3846 0.384875 53.3846 0.859799V6.39582C53.3843 6.87049 52.9205 7.25562 52.3485 7.25562Z" fill="black"/>
<path d="M52.3484 8.35071C51.0493 8.35071 49.9924 7.47361 49.9924 6.39556C49.9924 5.31801 51.0493 4.44092 52.3484 4.44092C53.6468 4.44092 54.7037 5.31801 54.7037 6.39556C54.7037 7.47386 53.6468 8.35071 52.3484 8.35071ZM52.3484 6.16076C52.192 6.16076 52.0645 6.26608 52.0645 6.39581C52.0645 6.65528 52.6316 6.65528 52.6316 6.39581C52.6316 6.26608 52.5044 6.16076 52.3484 6.16076Z" fill="black"/>
<path d="M60.893 7.25562C60.3207 7.25562 59.8569 6.87049 59.8569 6.39582V0.859799C59.8569 0.384875 60.3207 0 60.893 0C61.4653 0 61.929 0.384875 61.929 0.859799V6.39582C61.929 6.87049 61.4653 7.25562 60.893 7.25562Z" fill="black"/>
<path d="M60.8928 8.35071C59.5938 8.35071 58.5369 7.47361 58.5369 6.39556C58.5369 5.31801 59.5938 4.44092 60.8928 4.44092C62.1912 4.44092 63.2475 5.31801 63.2475 6.39556C63.2475 7.47386 62.1912 8.35071 60.8928 8.35071ZM60.8928 6.16076C60.7365 6.16076 60.609 6.26608 60.609 6.39581C60.609 6.65477 61.1754 6.65553 61.1754 6.39581C61.1754 6.26608 61.0485 6.16076 60.8928 6.16076Z" fill="black"/>
<path d="M37.031 22.1349H33.4879C32.9157 22.1349 32.4519 21.7501 32.4519 21.2751V18.3348C32.4519 17.8599 32.9157 17.475 33.4879 17.475H37.031C37.6033 17.475 38.0671 17.8599 38.0671 18.3348V21.2751C38.0671 21.7501 37.6033 22.1349 37.031 22.1349ZM34.524 20.4156H35.995V19.1948H34.524V20.4156Z" fill="black"/>
<path d="M44.47 22.1349H40.9278C40.3559 22.1349 39.8921 21.7501 39.8921 21.2751V18.3348C39.8921 17.8599 40.3559 17.475 40.9278 17.475H44.47C45.0423 17.475 45.506 17.8599 45.506 18.3348V21.2751C45.506 21.7501 45.0423 22.1349 44.47 22.1349ZM41.9642 20.4156H43.4343V19.1948H41.9642V20.4156Z" fill="black"/>
<path d="M51.9092 22.1349H48.3661C47.7938 22.1349 47.3301 21.7501 47.3301 21.2751V18.3348C47.3301 17.8599 47.7938 17.475 48.3661 17.475H51.9092C52.4815 17.475 52.9453 17.8599 52.9453 18.3348V21.2751C52.9453 21.7501 52.4815 22.1349 51.9092 22.1349ZM49.4022 20.4156H50.8732V19.1948H49.4022V20.4156Z" fill="black"/>
<path d="M59.3487 22.1349H55.8056C55.2333 22.1349 54.7695 21.7501 54.7695 21.2751V18.3348C54.7695 17.8599 55.2333 17.475 55.8056 17.475H59.3487C59.9209 17.475 60.3847 17.8599 60.3847 18.3348V21.2751C60.3844 21.7501 59.9206 22.1349 59.3487 22.1349ZM56.8416 20.4156H58.3126V19.1948H56.8416V20.4156Z" fill="black"/>
<path d="M14.7135 28.5791H11.1713C10.599 28.5791 10.1353 28.1945 10.1353 27.7193V24.779C10.1353 24.3043 10.599 23.9192 11.1713 23.9192H14.7135C15.2854 23.9192 15.7495 24.3043 15.7495 24.779V27.7193C15.7495 28.1945 15.2857 28.5791 14.7135 28.5791ZM12.2076 26.8595H13.6777V25.6388H12.2076V26.8595Z" fill="black"/>
<path d="M22.1527 28.5791H18.6105C18.0382 28.5791 17.5745 28.1945 17.5745 27.7193V24.779C17.5745 24.3043 18.0382 23.9192 18.6105 23.9192H22.1527C22.7246 23.9192 23.1887 24.3043 23.1887 24.779V27.7193C23.1887 28.1945 22.7246 28.5791 22.1527 28.5791ZM19.6466 26.8595H21.1166V25.6388H19.6466V26.8595Z" fill="black"/>
<path d="M29.5921 28.5791H26.049C25.477 28.5791 25.0129 28.1945 25.0129 27.7193V24.779C25.0129 24.3043 25.477 23.9192 26.049 23.9192H29.5921C30.1643 23.9192 30.6281 24.3043 30.6281 24.779V27.7193C30.6281 28.1945 30.1643 28.5791 29.5921 28.5791ZM27.085 26.8595H28.556V25.6388H27.085V26.8595Z" fill="black"/>
<path d="M37.031 28.5791H33.4879C32.9157 28.5791 32.4519 28.1945 32.4519 27.7193V24.779C32.4519 24.3043 32.9157 23.9192 33.4879 23.9192H37.031C37.6033 23.9192 38.0671 24.3043 38.0671 24.779V27.7193C38.0671 28.1945 37.6033 28.5791 37.031 28.5791ZM34.524 26.8595H35.995V25.6388H34.524V26.8595Z" fill="black"/>
<path d="M44.47 28.5791H40.9278C40.3559 28.5791 39.8921 28.1945 39.8921 27.7193V24.779C39.8921 24.3043 40.3559 23.9192 40.9278 23.9192H44.47C45.0423 23.9192 45.506 24.3043 45.506 24.779V27.7193C45.506 28.1945 45.0423 28.5791 44.47 28.5791ZM41.9642 26.8595H43.4343V25.6388H41.9642V26.8595Z" fill="black"/>
<path d="M51.9092 28.5791H48.3661C47.7938 28.5791 47.3301 28.1945 47.3301 27.7193V24.779C47.3301 24.3043 47.7938 23.9192 48.3661 23.9192H51.9092C52.4815 23.9192 52.9453 24.3043 52.9453 24.779V27.7193C52.9453 28.1945 52.4815 28.5791 51.9092 28.5791ZM49.4022 26.8595H50.8732V25.6388H49.4022V26.8595Z" fill="black"/>
<path d="M59.3487 28.5791H55.8056C55.2333 28.5791 54.7695 28.1945 54.7695 27.7193V24.779C54.7695 24.3043 55.2333 23.9192 55.8056 23.9192H59.3487C59.9209 23.9192 60.3847 24.3043 60.3847 24.779V27.7193C60.3844 28.1945 59.9206 28.5791 59.3487 28.5791ZM56.8416 26.8595H58.3126V25.6388H56.8416V26.8595Z" fill="black"/>
<path d="M14.7135 35.023H11.1713C10.599 35.023 10.1353 34.6384 10.1353 34.1632V31.2231C10.1353 30.748 10.599 30.3633 11.1713 30.3633H14.7135C15.2854 30.3633 15.7495 30.748 15.7495 31.2231V34.1635C15.7495 34.6387 15.2857 35.023 14.7135 35.023ZM12.2076 33.3037H13.6777V32.0829H12.2076V33.3037Z" fill="black"/>
<path d="M22.1527 35.023H18.6105C18.0382 35.023 17.5745 34.6384 17.5745 34.1632V31.2231C17.5745 30.748 18.0382 30.3633 18.6105 30.3633H22.1527C22.7246 30.3633 23.1887 30.748 23.1887 31.2231V34.1635C23.1887 34.6387 22.7246 35.023 22.1527 35.023ZM19.6466 33.3037H21.1166V32.0829H19.6466V33.3037Z" fill="black"/>
<path d="M29.5921 35.023H26.049C25.477 35.023 25.0129 34.6384 25.0129 34.1632V31.2231C25.0129 30.748 25.477 30.3633 26.049 30.3633H29.5921C30.1643 30.3633 30.6281 30.748 30.6281 31.2231V34.1635C30.6281 34.6387 30.1643 35.023 29.5921 35.023ZM27.085 33.3037H28.556V32.0829H27.085V33.3037Z" fill="black"/>
<path d="M37.031 35.023H33.4879C32.9157 35.023 32.4519 34.6384 32.4519 34.1632V31.2231C32.4519 30.748 32.9157 30.3633 33.4879 30.3633H37.031C37.6033 30.3633 38.0671 30.748 38.0671 31.2231V34.1635C38.0671 34.6387 37.6033 35.023 37.031 35.023ZM34.524 33.3037H35.995V32.0829H34.524V33.3037Z" fill="black"/>
<path d="M44.47 35.023H40.9278C40.3559 35.023 39.8921 34.6384 39.8921 34.1632V31.2231C39.8921 30.748 40.3559 30.3633 40.9278 30.3633H44.47C45.0423 30.3633 45.506 30.748 45.506 31.2231V34.1635C45.506 34.6387 45.0423 35.023 44.47 35.023ZM41.9642 33.3037H43.4343V32.0829H41.9642V33.3037Z" fill="black"/>
<path d="M51.9092 35.023H48.3661C47.7938 35.023 47.3301 34.6384 47.3301 34.1632V31.2231C47.3301 30.748 47.7938 30.3633 48.3661 30.3633H51.9092C52.4815 30.3633 52.9453 30.748 52.9453 31.2231V34.1635C52.9453 34.6387 52.4815 35.023 51.9092 35.023ZM49.4022 33.3037H50.8732V32.0829H49.4022V33.3037Z" fill="black"/>
<path d="M59.3487 35.023H55.8056C55.2333 35.023 54.7695 34.6384 54.7695 34.1632V31.2231C54.7695 30.748 55.2333 30.3633 55.8056 30.3633H59.3487C59.9209 30.3633 60.3847 30.748 60.3847 31.2231V34.1635C60.3844 34.6387 59.9206 35.023 59.3487 35.023ZM56.8416 33.3037H58.3126V32.0829H56.8416V33.3037Z" fill="black"/>
<path d="M14.7135 41.4664H11.1713C10.599 41.4664 10.1353 41.0818 10.1353 40.6066V37.6663C10.1353 37.1911 10.599 36.8065 11.1713 36.8065H14.7135C15.2854 36.8065 15.7495 37.1911 15.7495 37.6663V40.6066C15.7495 41.0818 15.2857 41.4664 14.7135 41.4664ZM12.2076 39.7468H13.6777V38.5261H12.2076V39.7468Z" fill="black"/>
<path d="M22.1527 41.4664H18.6105C18.0382 41.4664 17.5745 41.0818 17.5745 40.6066V37.6663C17.5745 37.1911 18.0382 36.8065 18.6105 36.8065H22.1527C22.7246 36.8065 23.1887 37.1911 23.1887 37.6663V40.6066C23.1887 41.0818 22.7246 41.4664 22.1527 41.4664ZM19.6466 39.7468H21.1166V38.5261H19.6466V39.7468Z" fill="black"/>
<path d="M29.5916 41.4664H26.0485C25.4765 41.4664 25.0125 41.0818 25.0125 40.6066V37.6663C25.0125 37.1911 25.4765 36.8065 26.0485 36.8065H29.5916C30.1639 36.8065 30.6276 37.1911 30.6276 37.6663V40.6066C30.6276 41.0818 30.1639 41.4664 29.5916 41.4664ZM27.0845 39.7468H28.5555V38.5261H27.0845V39.7468Z" fill="black"/>
<path d="M37.031 41.4664H33.4879C32.9157 41.4664 32.4519 41.0818 32.4519 40.6066V37.6663C32.4519 37.1911 32.9157 36.8065 33.4879 36.8065H37.031C37.6033 36.8065 38.0671 37.1911 38.0671 37.6663V40.6066C38.0671 41.0818 37.6033 41.4664 37.031 41.4664ZM34.524 39.7468H35.995V38.5261H34.524V39.7468Z" fill="black"/>
<path d="M44.47 41.4664H40.9278C40.3559 41.4664 39.8921 41.0818 39.8921 40.6066V37.6663C39.8921 37.1911 40.3559 36.8065 40.9278 36.8065H44.47C45.0423 36.8065 45.506 37.1911 45.506 37.6663V40.6066C45.506 41.0818 45.0423 41.4664 44.47 41.4664ZM41.9642 39.7468H43.4343V38.5261H41.9642V39.7468Z" fill="black"/>
<path d="M59.5731 15.0915H44.4701C43.8979 15.0915 43.4341 14.7066 43.4341 14.2317C43.4341 13.7568 43.8979 13.3719 44.4701 13.3719H59.5731C60.1453 13.3719 60.6091 13.7568 60.6091 14.2317C60.6091 14.7066 60.1453 15.0915 59.5731 15.0915Z" fill="black"/>
</svg>
