<svg width="70" height="70" viewBox="0 0 70 70" fill="none" xmlns="http://www.w3.org/2000/svg">
<path d="M61.3987 26.0327C60.5294 24.2026 59.0196 22.8301 57.1438 22.1438C55.268 21.4575 53.2092 21.549 51.4249 22.4183C49.5948 23.2876 48.2222 24.7974 47.5817 26.6732C46.8954 28.549 46.9869 30.6078 47.8562 32.3922C48.268 33.3072 48.8628 34.085 49.5948 34.7712C50.3268 35.4118 51.1504 35.915 52.1111 36.281C52.9347 36.6013 53.804 36.7386 54.6275 36.7386C57.6928 36.7386 60.5752 34.817 61.6732 31.7974C62.3137 29.8758 62.2222 27.8627 61.3987 26.0327Z" fill="white"/>
<path d="M49.6406 44.5621C45.7517 43.1438 41.4511 45.2026 40.0328 49.0915C39.3465 50.9673 39.438 53.0261 40.3073 54.8104C41.1765 56.6405 42.6864 58.0131 44.5622 58.6536C45.3857 58.9739 46.255 59.1111 47.1243 59.1111C48.2223 59.1111 49.3204 58.8823 50.3269 58.3791C52.157 57.5098 53.5295 56 54.2158 54.1242C54.9021 52.2484 54.8106 50.1895 53.9413 48.4052C53.0262 46.6209 51.5164 45.2484 49.6406 44.5621Z" fill="white"/>
<path d="M32.6666 21.5033C33.4444 21.7321 34.2222 21.8693 34.9542 21.8693C38.1111 21.8693 41.0849 19.8562 42.0914 16.6994C43.3725 12.7647 41.2222 8.50982 37.2875 7.22878C33.3529 5.94773 29.1437 8.09806 27.8169 12.0327C27.5882 12.8105 27.4509 13.5883 27.4509 14.3203C27.4967 17.5229 29.5098 20.4968 32.6666 21.5033Z" fill="white"/>
<path d="M34.9998 39.1177C37.274 39.1177 39.1175 37.2741 39.1175 35C39.1175 32.7259 37.274 30.8824 34.9998 30.8824C32.7257 30.8824 30.8822 32.7259 30.8822 35C30.8822 37.2741 32.7257 39.1177 34.9998 39.1177Z" fill="white"/>
<path d="M35 0C15.6928 0 0 15.6928 0 35C0 48.3595 7.50327 59.9804 18.5294 65.8824H0V70H35H37.0588V69.9542C55.4052 68.9019 70 53.6209 70 35C70 15.6928 54.3072 0 35 0ZM35 65.8824C17.9804 65.8824 4.11765 52.0196 4.11765 35C4.11765 17.9804 17.9804 4.11765 35 4.11765C52.0196 4.11765 65.8824 17.9804 65.8824 35C65.8824 52.0196 52.0196 65.8824 35 65.8824Z" fill="white"/>
<path d="M25.438 44.5621C23.5621 43.8758 21.5033 43.9673 19.719 44.8366C17.8889 45.7059 16.5164 47.2157 15.8301 49.0915C15.1438 50.9673 15.2354 53.0261 16.1046 54.8104C16.9739 56.6405 18.4837 58.0131 20.3595 58.6536C21.1831 58.9738 22.0524 59.1111 22.8759 59.1111C25.9412 59.1111 28.8236 57.1895 29.9216 54.1699C30.6079 52.2941 30.5164 50.2353 29.6471 48.451C28.7778 46.6666 27.3138 45.2483 25.438 44.5621Z" fill="white"/>
<path d="M19.4444 36.464C21.2745 35.5948 22.6471 34.085 23.2876 32.2092C24.7059 28.3203 22.6471 24.0196 18.7582 22.6013C16.8823 21.915 14.8235 22.0065 13.0392 22.8758C11.2091 23.7451 9.8366 25.2549 9.15032 27.1307C8.46405 29.0065 8.55554 31.0654 9.42482 32.8497C9.83659 33.7647 10.4314 34.5425 11.1634 35.183C11.8954 35.8235 12.719 36.3268 13.6797 36.6928C14.5033 37.0131 15.3725 37.1503 16.2418 37.1503C17.3399 37.1961 18.4379 36.9216 19.4444 36.464Z" fill="white"/>
</svg>
